<svg width="100%" height="100%" viewBox="0 0 512 512" fill="none" xmlns="http://www.w3.org/2000/svg">
<path fill-rule="evenodd" clip-rule="evenodd" d="M295.438 126.406C295.604 127.139 295.913 127.458 297.409 128.445C298.904 129.432 307.43 134.961 311.851 137.811C313.173 138.663 316.447 140.792 319.127 142.54C321.806 144.289 325.655 146.777 327.679 148.07C329.703 149.362 331.603 150.664 331.9 150.963C332.58 151.645 332.637 152.358 332.073 153.114L331.705 153.608L301.802 153.629C285.355 153.641 264.755 153.691 256.024 153.74L240.148 153.829L239.752 154.641C239.535 155.088 238.635 157.247 237.753 159.439C236.871 161.632 235.535 164.936 234.783 166.782C233.891 168.973 233.448 170.24 233.507 170.43C233.557 170.59 233.781 170.878 234.005 171.072L234.413 171.423L278.476 171.524L322.539 171.625L323.125 171.979C323.931 172.467 326.695 174.755 327.157 175.316C327.712 175.991 327.678 176.783 327.065 177.447L326.596 177.955L319.164 178.185C315.076 178.311 306.958 178.579 301.124 178.781C285.82 179.31 269.885 179.852 262.157 180.104C258.466 180.225 253.563 180.392 251.261 180.475C245.783 180.674 236.335 180.984 222.18 181.431C215.87 181.63 210.09 181.831 209.336 181.877C208.582 181.923 204.718 182.058 200.749 182.178C196.78 182.298 190.708 182.494 187.255 182.614C183.802 182.733 174.775 183.032 167.194 183.277C152.343 183.758 150.854 183.843 150.476 184.228C150.268 184.441 150.231 184.959 150.193 188.179C150.151 191.811 150.156 191.891 150.464 192.226C150.637 192.414 150.948 192.604 151.157 192.649C151.512 192.724 157.858 192.971 168.349 193.318C170.849 193.4 175.655 193.567 179.028 193.689C182.402 193.81 187.045 193.976 189.347 194.057C199.811 194.426 202.414 194.52 207.893 194.726C211.107 194.848 216.887 195.046 220.737 195.167C224.587 195.289 230.464 195.486 233.798 195.606C237.132 195.726 240.899 195.862 242.169 195.908C243.439 195.953 249.998 196.186 256.745 196.425C263.492 196.663 270.863 196.927 273.126 197.01C275.388 197.093 279.317 197.227 281.857 197.306C284.397 197.386 287.287 197.488 288.279 197.532C289.963 197.608 292.85 197.708 309.35 198.263C318.638 198.575 318.697 198.58 319.183 199.077C320.072 199.985 319.866 200.78 318.469 201.838C317.533 202.546 293.889 219.001 286.48 224.099C284.964 225.142 284.697 225.52 284.895 226.339C285.156 227.416 284.032 227.347 301.973 227.395L318.048 227.438L318.642 227.036C319.241 226.631 327.819 219.605 344.654 205.733C346.47 204.236 350.911 200.585 354.522 197.619C358.134 194.654 361.674 191.74 362.388 191.144C363.102 190.548 366.544 187.714 370.037 184.846C382.843 174.33 384.189 173.213 384.649 172.718C385.241 172.083 385.28 171.396 384.762 170.765C384.565 170.527 382.601 168.913 380.396 167.178C378.191 165.444 374.958 162.889 373.212 161.5C371.466 160.112 365.686 155.529 360.367 151.316C355.049 147.104 348.555 141.957 345.935 139.878C343.316 137.799 338.997 134.378 336.338 132.276C330.733 127.845 328.881 126.346 328.759 126.145C328.703 126.052 322.735 126 312.009 126H295.345L295.438 126.406ZM169.695 161.672C169.418 162.104 169.274 163.504 169.422 164.315C169.476 164.606 169.646 164.974 169.8 165.132C170.076 165.414 170.526 165.419 196.541 165.419C222.221 165.419 223.009 165.41 223.246 165.142C223.785 164.533 223.785 162.17 223.246 161.561C223.009 161.293 222.219 161.285 196.472 161.285H169.943L169.695 161.672ZM88.3167 177.929L84.2693 177.972L84.0231 178.399C83.8261 178.74 83.7768 179.196 83.7768 180.675C83.7768 182.76 83.8898 183.221 84.4538 183.441C84.7193 183.544 92.1738 183.595 107.366 183.596L129.885 183.598L130.294 183.131L130.702 182.663L130.655 180.542C130.616 178.743 130.57 178.38 130.351 178.157C130.107 177.907 129.132 177.894 111.229 177.89C100.853 177.888 90.5425 177.905 88.3167 177.929ZM194.723 208.245C194.306 208.493 194.112 209.03 192.959 213.109C191.957 216.657 191.87 217.068 192.014 217.568C192.191 218.185 192.405 218.344 193.244 218.477C193.728 218.555 199.859 219.02 209.913 219.742C211.064 219.824 213.759 220.027 215.902 220.192C218.046 220.357 221.065 220.587 222.613 220.704C249.492 222.728 249.113 222.701 250.349 222.701C251.136 222.701 251.519 222.638 251.671 222.482C251.789 222.362 252.115 221.548 252.397 220.674C253.341 217.742 255.663 209.728 255.663 209.402C255.663 209.225 255.528 208.856 255.362 208.582L255.062 208.085L225.019 208.09C204.88 208.093 194.893 208.144 194.723 208.245ZM418.88 211.183L411.006 211.259L410.293 211.858C409.902 212.188 408.249 213.586 406.622 214.966C404.995 216.346 402.105 218.795 400.2 220.41C398.295 222.024 395.207 224.645 393.338 226.234C383.889 234.268 371.835 244.495 367.656 248.024C365.076 250.202 362.641 252.263 362.244 252.604C358.729 255.625 353.258 260.258 352.455 260.892C351.615 261.555 351.368 261.677 350.853 261.677C350.279 261.677 350.178 261.606 349.097 260.459C348.466 259.789 346.198 257.252 344.056 254.822C339.126 249.226 336.363 246.099 333.091 242.41C331.662 240.8 329.674 238.546 328.674 237.403C324.359 232.471 323.566 231.638 323.01 231.45C322.093 231.139 322.134 231.11 316.566 236.063C314.713 237.712 311.351 240.668 308.274 243.353C307.008 244.459 304.735 246.449 303.223 247.777C301.711 249.105 299.078 251.406 297.371 252.89C295.665 254.375 292.612 257.032 290.588 258.795C288.564 260.558 284.245 264.276 280.991 267.056C277.737 269.836 274.984 272.222 274.875 272.358C274.601 272.697 274.744 273.645 275.16 274.256C275.513 274.774 283.289 285.546 288.352 292.532C294.212 300.617 300.668 309.53 309.472 321.69C333.096 354.319 332.402 353.38 333.031 353.584C333.517 353.741 334.351 353.17 338.055 350.144C346.267 343.435 370.605 323.512 381.68 314.434C395.378 303.206 395.809 302.867 396.382 302.867C396.864 302.867 397.963 303.841 397.963 304.268C397.963 304.498 395.522 311.861 394.438 314.899C394.086 315.886 392.33 321.002 390.383 326.71C387.785 334.33 387.067 336.427 386.061 339.333C385.456 341.079 384.582 343.636 384.117 345.017C383.653 346.397 382.937 348.49 382.526 349.667C382.116 350.845 381.27 353.303 380.647 355.13C380.024 356.957 379.272 359.149 378.977 360.002C378.311 361.927 376.925 365.979 375.441 370.336C374.819 372.163 373.813 375.086 373.206 376.832C371.671 381.242 370.686 384.32 370.686 384.711C370.686 384.893 370.904 385.257 371.169 385.521L371.652 386L399.308 385.956L426.964 385.912L427.272 385.597C427.572 385.29 428.501 382.451 429.15 379.859C429.313 379.209 429.506 378.615 429.58 378.537C429.653 378.46 429.714 378.27 429.714 378.115C429.714 377.96 429.936 377.093 430.207 376.188C430.479 375.284 430.965 373.614 431.288 372.477C432.93 366.699 433.437 364.928 434.479 361.33C435.102 359.179 435.914 356.355 436.283 355.056C436.652 353.757 437.265 351.598 437.645 350.258C438.026 348.918 439.033 345.397 439.883 342.433C440.734 339.469 441.876 335.483 442.42 333.575C442.965 331.667 443.614 329.441 443.862 328.629C444.11 327.817 444.365 326.92 444.428 326.636C444.491 326.352 445.046 324.392 445.66 322.281C446.275 320.17 446.827 318.243 446.886 318C446.946 317.756 447.486 315.863 448.087 313.792C449.774 307.973 450.951 303.871 451.072 303.384C451.132 303.14 451.77 300.914 452.488 298.438C453.207 295.961 454.087 292.905 454.444 291.647C455.224 288.898 455.587 287.633 456.563 284.253C456.972 282.838 457.921 279.522 458.673 276.883C459.426 274.244 460.269 271.288 460.549 270.313C460.828 269.339 461.337 267.545 461.681 266.327C462.025 265.109 462.673 262.85 463.122 261.308C464.071 258.043 464.765 255.623 468.032 244.182C469.354 239.554 470.925 234.073 471.523 232.002C472.121 229.931 472.852 227.374 473.147 226.318C473.443 225.263 474.448 221.724 475.383 218.454C476.448 214.726 477.049 212.381 476.997 212.167C476.951 211.978 476.777 211.647 476.61 211.431L476.308 211.038L451.532 211.072C437.905 211.091 423.212 211.141 418.88 211.183ZM240.87 226.407C239.679 226.47 236.302 226.59 233.365 226.673C230.428 226.756 225.2 226.925 221.747 227.048C205.309 227.635 188.094 228.194 171.524 228.676C162.734 228.932 158.248 229.148 157.764 229.336C157.306 229.514 156.674 230.856 152.814 239.849C152.353 240.922 152.221 241.728 152.419 242.256C152.609 242.762 152.541 242.743 161.205 244.683C163.031 245.092 166.65 245.894 169.249 246.465C171.847 247.037 174.241 247.614 174.569 247.749C174.998 247.924 175.221 248.129 175.365 248.482C175.701 249.303 175.623 249.783 175.073 250.277C174.515 250.779 174.142 250.835 170.514 250.972C166.546 251.122 157.734 251.497 154.71 251.645C151.587 251.798 144.678 252.108 138.474 252.374C121.241 253.113 118.556 253.259 118.042 253.478C117.507 253.707 117.482 253.765 116.096 258.097C115.187 260.934 115.186 260.94 115.428 261.459C115.561 261.745 115.832 262.042 116.029 262.118C116.402 262.263 118.23 262.406 124.547 262.782C135.566 263.439 147.583 264.187 148.216 264.256C148.613 264.299 155.594 264.734 163.73 265.223C171.867 265.711 180.991 266.273 184.008 266.473C187.024 266.673 193.291 267.069 197.934 267.354C206.718 267.893 216.741 268.519 220.593 268.769C229.533 269.35 234.933 269.621 235.234 269.504C235.673 269.333 235.865 268.812 238.695 260.079C241.134 252.553 241.118 252.633 240.337 252.037C239.923 251.72 239.285 251.66 232.319 251.273C230.077 251.149 226.407 250.945 224.165 250.821C217.297 250.44 216.018 250.343 215.715 250.177C215.328 249.965 214.82 249.107 214.821 248.667C214.821 248.128 215.32 247.409 215.78 247.285C216.006 247.223 222.426 247.143 230.046 247.106C243.709 247.04 243.905 247.035 244.214 246.74C244.63 246.342 244.642 246.308 245.996 241.377C246.643 239.022 247.487 235.999 247.871 234.659C248.76 231.561 249.562 228.539 249.68 227.847C249.774 227.299 249.642 226.898 249.231 226.477C249.037 226.278 248.566 226.248 246.019 226.268C244.378 226.281 242.061 226.344 240.87 226.407ZM102.507 233.77C98.0891 233.84 97.6178 233.872 97.3839 234.111C97.0118 234.492 97.0107 236.928 97.3823 237.508L97.6382 237.907H116.741C138.469 237.907 136.334 238.05 136.601 236.58C136.77 235.649 136.575 234.355 136.22 234.054C136.084 233.939 135.232 233.827 133.955 233.757C131.733 233.635 110.38 233.644 102.507 233.77ZM433.899 248.73C434.839 249.058 434.907 249.399 434.921 253.852C434.927 256.004 434.979 259.276 435.035 261.125C435.132 264.337 435.151 264.499 435.46 264.815L435.783 265.146L442.237 265.195L448.692 265.244L449.161 265.704L449.63 266.164L449.628 273.48C449.625 281.305 449.621 281.36 448.904 281.705C448.661 281.823 446.498 281.911 442.096 281.984C435.784 282.089 435.638 282.098 435.357 282.403C435.083 282.701 435.067 283.009 434.972 289.432L434.874 296.15L434.43 296.629L433.987 297.109H427.473H420.96L420.665 296.777C420.065 296.103 420.044 295.933 420.044 291.619C420.043 289.32 420 286.379 419.948 285.083C419.861 282.947 419.823 282.697 419.545 282.412C419.241 282.101 419.138 282.096 411.97 282.012L404.704 281.926L404.343 281.557C404.115 281.324 403.94 280.926 403.868 280.475C403.72 279.557 403.721 268.953 403.869 267.224C404.05 265.103 403.375 265.276 411.868 265.177C415.769 265.132 419.113 265.047 419.298 264.989C419.482 264.932 419.705 264.711 419.793 264.498C419.898 264.244 419.98 261.649 420.034 256.872C420.125 248.83 420.104 248.994 421.091 248.702C421.813 248.489 433.28 248.514 433.899 248.73ZM227.592 273.273C218.312 273.827 208.456 274.401 203.635 274.667C200.698 274.829 196.574 275.062 194.471 275.183C192.367 275.305 188.763 275.506 186.461 275.63C184.159 275.754 181.366 275.92 180.255 275.999C179.144 276.078 176.351 276.244 174.049 276.369C171.747 276.494 168.176 276.691 166.112 276.808C164.048 276.925 159.729 277.157 156.514 277.325C153.3 277.492 150.02 277.695 149.226 277.775C147.109 277.988 147.07 278.075 147.158 282.442C147.211 285.089 147.307 285.608 147.778 285.793C148.168 285.946 151.423 286.172 165.102 286.997C172.484 287.442 182.29 288.036 186.894 288.318C201.608 289.219 202.621 289.281 211.284 289.799C215.967 290.079 221.513 290.416 223.609 290.548C226.337 290.72 227.513 290.744 227.753 290.633C227.937 290.547 228.243 290.159 228.434 289.77C229.016 288.582 233.313 275.16 233.34 274.444C233.393 273.06 232.884 272.956 227.592 273.273ZM35.3536 281.048C34.9847 281.497 34.9668 281.588 35.0254 282.73C35.0665 283.531 35.1704 284.068 35.3338 284.323L35.5803 284.708H81.2991C117.647 284.708 127.068 284.67 127.264 284.523C127.575 284.29 127.827 282.795 127.706 281.903C127.656 281.537 127.482 281.089 127.319 280.906L127.023 280.574H81.3832H35.7437L35.3536 281.048ZM261.198 287.512C260.866 287.649 258.824 289.315 251.983 295.031C246.585 299.541 244.187 301.542 241.519 303.762C240.368 304.721 238.647 306.154 237.695 306.949C234.491 309.621 226.595 316.199 225.167 317.385C223.258 318.971 222.934 319.295 222.829 319.72C222.73 320.125 223.196 321.501 224.272 323.979C224.643 324.831 225.625 327.157 226.455 329.146C227.285 331.135 228.067 332.996 228.192 333.28C228.318 333.564 230.592 338.945 233.245 345.238C235.898 351.531 238.468 357.61 238.955 358.747C239.442 359.884 240.017 361.246 240.232 361.773C240.448 362.301 241.286 364.294 242.096 366.202C242.905 368.111 244.473 371.831 245.581 374.47C247.478 378.99 249.001 382.567 249.885 384.583C250.099 385.07 250.393 385.568 250.537 385.69C250.769 385.885 254.301 385.917 280.001 385.956L309.201 386L309.492 385.513C309.651 385.245 309.782 384.793 309.781 384.509C309.781 384.12 305.989 376.22 294.404 352.472C275.453 313.624 262.918 288.19 262.493 287.72C262.162 287.355 261.741 287.288 261.198 287.512ZM103.09 297.419C102.668 297.812 102.515 298.26 101.314 302.607C100.466 305.679 100.368 306.291 100.643 306.817C100.96 307.422 101.331 307.494 104.703 307.607C106.489 307.668 109.574 307.788 111.559 307.876C113.543 307.964 118.966 308.169 123.609 308.331C128.253 308.493 133.611 308.69 135.516 308.768C137.421 308.846 140.084 308.948 141.433 308.995C149.085 309.26 169.94 310.038 176.936 310.319C179.793 310.434 183.333 310.567 184.801 310.615C186.27 310.662 188.868 310.766 190.574 310.845C192.281 310.923 197.346 311.119 201.831 311.279C206.316 311.439 212.063 311.653 214.604 311.753C220.729 311.995 220.269 312.014 220.723 311.494C221.245 310.896 224.497 300.895 224.493 299.9C224.489 299.138 224.248 298.826 223.551 298.683C223.103 298.592 209.861 298.399 186.461 298.145C166.224 297.925 146.553 297.671 110.401 297.162L103.471 297.065L103.09 297.419ZM209.901 318.572C209.868 318.603 207.828 318.705 205.367 318.799C202.906 318.894 198.815 319.068 196.275 319.187C193.735 319.305 185.649 319.668 178.307 319.993C170.965 320.317 163.626 320.649 161.999 320.729C160.371 320.81 155.793 321.009 151.824 321.171C147.855 321.334 143.244 321.534 141.577 321.615C139.91 321.697 136.208 321.863 133.351 321.986C117.347 322.671 117.571 322.658 116.591 322.963C116.029 323.139 115.919 323.382 113.866 328.998C112.655 332.313 112.345 333.312 112.407 333.704C112.499 334.295 112.819 334.696 113.298 334.819C113.616 334.9 130.362 337.382 132.846 337.716C136.309 338.181 138.455 338.575 138.806 338.81C139.159 339.046 139.482 339.79 139.484 340.37C139.485 340.711 139.083 341.228 138.629 341.468C138.354 341.613 137.328 341.732 135.427 341.837C133.888 341.922 130.876 342.091 128.733 342.214C126.59 342.336 122.271 342.57 119.135 342.734C116 342.898 111.032 343.163 108.095 343.323C105.158 343.483 101.489 343.68 99.9407 343.761C98.3929 343.842 96.8017 343.942 96.4048 343.985C96.008 344.027 91.819 344.259 87.0961 344.501C75.1448 345.114 71.0369 345.354 70.7775 345.456C70.4586 345.581 69.7261 346.878 69.1499 348.339C68.8775 349.029 68.2825 350.457 67.8276 351.513C67.3727 352.568 66.9497 353.651 66.8873 353.919C66.7449 354.532 66.9646 355.376 67.3166 355.569C67.7214 355.79 70.6973 355.976 80.3852 356.384C85.2272 356.588 90.4877 356.821 92.0752 356.901C93.6627 356.981 97.3321 357.148 100.229 357.272C103.127 357.396 107.64 357.595 110.26 357.715C112.879 357.835 117.458 358.032 120.434 358.153C123.411 358.274 127.243 358.442 128.949 358.527C132.459 358.702 146.928 359.338 162.359 359.997C168.075 360.241 174.082 360.51 175.709 360.595C188.225 361.251 202.327 361.726 202.854 361.509C203.199 361.368 203.512 360.481 206.938 349.938C208.979 343.659 211.619 335.764 212.804 332.394C213.99 329.024 215.381 325.071 215.896 323.61C217.205 319.894 217.256 319.666 216.921 319.029L216.651 318.516H213.306C211.466 318.516 209.934 318.541 209.901 318.572ZM61.1184 327.321C60.285 327.351 59.4612 327.451 59.2879 327.543C58.8151 327.792 58.6192 328.45 58.642 329.71C58.6655 331.009 58.756 331.134 59.8029 331.318C60.6553 331.467 95.5528 331.472 96.0736 331.322C96.3643 331.239 96.5024 331.07 96.6141 330.658C96.9351 329.476 96.7034 327.804 96.179 327.517C95.9014 327.365 64.6826 327.19 61.1184 327.321ZM154.84 366.596C149.285 366.644 148.744 366.671 148.544 366.905C148.268 367.229 143.757 376.282 142.941 378.15C142.262 379.704 142.16 380.483 142.577 380.954L142.849 381.261H170.733H198.618L199.205 379.453C199.527 378.458 199.995 376.913 200.244 376.02C200.493 375.127 201.082 373.114 201.553 371.547C202.472 368.487 202.601 367.506 202.156 366.957L201.903 366.646L181.41 366.595C170.138 366.567 158.182 366.568 154.84 366.596ZM100.912 371.18C100.261 371.281 100.074 371.751 100.071 373.288C100.07 374.368 100.12 374.708 100.316 374.929C100.554 375.199 101.007 375.208 113.939 375.208H127.315L127.497 374.802C127.733 374.273 127.857 373.012 127.738 372.36C127.686 372.077 127.474 371.672 127.266 371.46L126.889 371.074L114.101 371.097C107.067 371.109 101.132 371.146 100.912 371.18Z" fill="#0080C7"/>
</svg>
